<svg xmlns="http://www.w3.org/2000/svg" xmlns:xlink="http://www.w3.org/1999/xlink" width="500" zoomAndPan="magnify" viewBox="0 0 375 374.999991" height="500" preserveAspectRatio="xMidYMid meet" version="1.0"><defs><clipPath id="389a51c633"><path d="M 57 29.496094 L 314 29.496094 L 314 190 L 57 190 Z M 57 29.496094 " clip-rule="nonzero"/></clipPath><clipPath id="5f49b58dea"><path d="M 56 29.496094 L 314 29.496094 L 314 144 L 56 144 Z M 56 29.496094 " clip-rule="nonzero"/></clipPath><clipPath id="5d0887ffcd"><path d="M 57 29.496094 L 314 29.496094 L 314 51 L 57 51 Z M 57 29.496094 " clip-rule="nonzero"/></clipPath><clipPath id="f1afe9a9ad"><path d="M 22.003906 92 L 71 92 L 71 188 L 22.003906 188 Z M 22.003906 92 " clip-rule="nonzero"/></clipPath><clipPath id="9583046a83"><path d="M 108 346 L 130 346 L 130 354.996094 L 108 354.996094 Z M 108 346 " clip-rule="nonzero"/></clipPath><clipPath id="5a4b1ffacd"><path d="M 60 335 L 82 335 L 82 354.996094 L 60 354.996094 Z M 60 335 " clip-rule="nonzero"/></clipPath><clipPath id="5e62aa70c2"><path d="M 275 317 L 313 317 L 313 354.996094 L 275 354.996094 Z M 275 317 " clip-rule="nonzero"/></clipPath><clipPath id="517b0b07e6"><path d="M 279 317 L 313 317 L 313 354.996094 L 279 354.996094 Z M 279 317 " clip-rule="nonzero"/></clipPath></defs><g clip-path="url(#389a51c633)"><path fill="#e0e3fc" d="M 57.128906 37.609375 C 57.128906 33.390625 60.546875 29.96875 64.765625 29.96875 L 305.675781 29.96875 C 309.894531 29.96875 313.3125 33.390625 313.3125 37.609375 L 313.3125 182.066406 C 313.3125 186.289062 309.894531 189.710938 305.675781 189.710938 L 64.765625 189.710938 C 60.546875 189.710938 57.128906 186.289062 57.128906 182.066406 Z M 57.128906 37.609375 " fill-opacity="1" fill-rule="nonzero"/></g><g clip-path="url(#5f49b58dea)"><path fill="#2f2f2f" d="M 56.746094 37.609375 C 56.746094 33.179688 60.335938 29.585938 64.765625 29.585938 L 305.675781 29.585938 C 310.105469 29.585938 313.691406 33.179688 313.691406 37.609375 L 313.691406 143.855469 L 312.929688 143.855469 L 312.929688 37.609375 C 312.929688 33.601562 309.683594 30.347656 305.675781 30.347656 L 64.765625 30.347656 C 60.757812 30.347656 57.511719 33.601562 57.511719 37.609375 L 57.511719 109.839844 L 56.746094 109.839844 Z M 56.746094 37.609375 " fill-opacity="1" fill-rule="evenodd"/></g><g clip-path="url(#5d0887ffcd)"><path fill="#4f69e1" d="M 305.675781 29.96875 L 64.765625 29.96875 C 60.546875 29.96875 57.128906 33.390625 57.128906 37.609375 L 57.128906 50.703125 L 313.3125 50.703125 L 313.3125 37.609375 C 313.3125 33.390625 309.894531 29.96875 305.675781 29.96875 Z M 305.675781 29.96875 " fill-opacity="1" fill-rule="nonzero"/></g><path fill="#2f2f2f" d="M 57.128906 50.320312 L 249.265625 50.320312 L 249.265625 51.085938 L 57.128906 51.085938 Z M 57.128906 50.320312 " fill-opacity="1" fill-rule="evenodd"/><path fill="#ffb25d" d="M 107.972656 133.582031 L 123.78125 133.582031 L 123.78125 155.890625 L 107.972656 155.890625 Z M 107.972656 133.582031 " fill-opacity="1" fill-rule="nonzero"/><path fill="#ffb25d" d="M 132.40625 123.511719 L 148.214844 123.511719 L 148.214844 155.890625 L 132.40625 155.890625 Z M 132.40625 123.511719 " fill-opacity="1" fill-rule="nonzero"/><path fill="#ff8906" d="M 156.839844 112.714844 L 172.648438 112.714844 L 172.648438 155.890625 L 156.839844 155.890625 Z M 156.839844 112.714844 " fill-opacity="1" fill-rule="nonzero"/><path fill="#ff8906" d="M 205.707031 96.167969 L 221.515625 96.167969 L 221.515625 155.890625 L 205.707031 155.890625 Z M 205.707031 96.167969 " fill-opacity="1" fill-rule="nonzero"/><path fill="#2f2f2f" d="M 205.324219 95.785156 L 221.515625 95.785156 L 221.515625 96.546875 L 206.089844 96.546875 L 206.089844 155.890625 L 205.324219 155.890625 Z M 156.457031 112.335938 L 172.648438 112.335938 L 172.648438 113.097656 L 157.21875 113.097656 L 157.21875 155.890625 L 156.457031 155.890625 Z M 156.457031 112.335938 " fill-opacity="1" fill-rule="evenodd"/><path fill="#ffb25d" d="M 181.273438 123.511719 L 197.082031 123.511719 L 197.082031 155.890625 L 181.273438 155.890625 Z M 181.273438 123.511719 " fill-opacity="1" fill-rule="nonzero"/><path fill="#2f2f2f" d="M 132.023438 123.128906 L 148.214844 123.128906 L 148.214844 123.890625 L 132.785156 123.890625 L 132.785156 155.890625 L 132.023438 155.890625 Z M 180.890625 123.128906 L 197.082031 123.128906 L 197.082031 123.890625 L 181.65625 123.890625 L 181.65625 155.890625 L 180.890625 155.890625 Z M 107.589844 133.203125 L 123.78125 133.203125 L 123.78125 133.964844 L 108.351562 133.964844 L 108.351562 155.890625 L 107.589844 155.890625 Z M 107.589844 133.203125 " fill-opacity="1" fill-rule="evenodd"/><path fill="#ff8906" d="M 278.289062 93.648438 C 278.289062 105.371094 268.796875 114.875 257.089844 114.875 C 245.382812 114.875 235.890625 105.371094 235.890625 93.648438 C 235.890625 81.925781 245.382812 72.421875 257.089844 72.421875 C 268.796875 72.421875 278.289062 81.925781 278.289062 93.648438 Z M 278.289062 93.648438 " fill-opacity="1" fill-rule="nonzero"/><path fill="#2f2f2f" d="M 257.089844 72.804688 C 245.589844 72.804688 236.269531 82.136719 236.269531 93.648438 L 235.507812 93.648438 C 235.507812 81.714844 245.171875 72.039062 257.089844 72.039062 C 269.007812 72.039062 278.671875 81.714844 278.671875 93.648438 C 278.671875 105.582031 269.007812 115.257812 257.089844 115.257812 L 257.089844 114.492188 C 268.585938 114.492188 277.90625 105.160156 277.90625 93.648438 C 277.90625 82.136719 268.585938 72.804688 257.089844 72.804688 Z M 257.089844 72.804688 " fill-opacity="1" fill-rule="evenodd"/><path fill="#ffb25d" d="M 271.101562 93.648438 C 271.101562 101.398438 264.828125 107.679688 257.089844 107.679688 C 249.351562 107.679688 243.074219 101.398438 243.074219 93.648438 C 243.074219 85.898438 249.351562 79.617188 257.089844 79.617188 C 264.828125 79.617188 271.101562 85.898438 271.101562 93.648438 Z M 271.101562 93.648438 " fill-opacity="1" fill-rule="nonzero"/><path fill="#2f2f2f" d="M 257.089844 80 C 249.5625 80 243.457031 86.109375 243.457031 93.648438 C 243.457031 101.1875 249.5625 107.296875 257.089844 107.296875 C 264.617188 107.296875 270.722656 101.1875 270.722656 93.648438 L 271.484375 93.648438 C 271.484375 101.609375 265.039062 108.0625 257.089844 108.0625 C 249.136719 108.0625 242.695312 101.609375 242.695312 93.648438 C 242.695312 85.6875 249.136719 79.234375 257.089844 79.234375 Z M 257.089844 80 " fill-opacity="1" fill-rule="evenodd"/><path fill="#8b98f3" d="M 265.355469 93.648438 C 265.355469 98.21875 261.65625 101.925781 257.089844 101.925781 C 252.527344 101.925781 248.824219 98.21875 248.824219 93.648438 C 248.824219 89.078125 252.527344 85.375 257.089844 85.375 C 261.65625 85.375 265.355469 89.078125 265.355469 93.648438 Z M 265.355469 93.648438 " fill-opacity="1" fill-rule="nonzero"/><path fill="#2f2f2f" d="M 257.089844 85.753906 C 252.738281 85.753906 249.207031 89.289062 249.207031 93.648438 L 248.445312 93.648438 C 248.445312 88.867188 252.316406 84.992188 257.089844 84.992188 C 261.867188 84.992188 265.738281 88.867188 265.738281 93.648438 C 265.738281 98.429688 261.867188 102.304688 257.089844 102.304688 L 257.089844 101.542969 C 261.445312 101.542969 264.972656 98.007812 264.972656 93.648438 C 264.972656 89.289062 261.445312 85.753906 257.089844 85.753906 Z M 257.089844 85.753906 " fill-opacity="1" fill-rule="evenodd"/><path fill="#4f69e1" d="M 273.921875 72.414062 L 273.921875 76.835938 L 278.210938 77.5 L 284.757812 71.085938 L 280.242188 70.867188 L 280.46875 66.664062 Z M 273.921875 72.414062 " fill-opacity="1" fill-rule="nonzero"/><path fill="#2f2f2f" d="M 280.898438 65.777344 L 280.644531 70.503906 L 285.648438 70.75 L 278.34375 77.90625 L 274.054688 77.246094 L 257.71875 93.558594 L 257.179688 93.019531 L 273.539062 76.679688 L 273.539062 72.242188 Z M 274.304688 76.507812 L 278.082031 77.09375 L 283.863281 71.425781 L 279.839844 71.230469 L 280.039062 67.550781 L 274.304688 72.585938 Z M 274.304688 76.507812 " fill-opacity="1" fill-rule="evenodd"/><g clip-path="url(#f1afe9a9ad)"><path fill="#4f69e1" d="M 56.875 92.835938 L 35.90625 92.835938 L 35.90625 150.695312 L 24.789062 150.695312 C 23.050781 150.695312 22.019531 152.628906 22.984375 154.070312 L 44.589844 186.335938 C 45.449219 187.617188 47.335938 187.617188 48.195312 186.335938 L 55.136719 175.964844 L 69.796875 154.070312 C 70.765625 152.628906 69.730469 150.695312 67.996094 150.695312 L 56.875 150.695312 Z M 56.875 92.835938 " fill-opacity="1" fill-rule="nonzero"/></g><path fill="#2f2f2f" d="M 56.796875 93.214844 L 42.878906 93.214844 L 42.878906 92.453125 L 57.5625 92.453125 L 57.5625 150.3125 L 68.300781 150.3125 C 70.339844 150.3125 71.554688 152.589844 70.417969 154.285156 L 55.757812 176.179688 L 55.125 175.753906 L 69.785156 153.859375 C 70.582031 152.671875 69.730469 151.078125 68.300781 151.078125 L 56.796875 151.078125 Z M 56.796875 93.214844 " fill-opacity="1" fill-rule="evenodd"/><path fill="#2f2f2f" d="M 46.457031 93.019531 L 46.457031 52.125 L 45.695312 52.125 L 45.695312 93.019531 Z M 35.972656 79.644531 L 35.972656 42.191406 L 35.210938 42.191406 L 35.210938 79.644531 Z M 35.972656 79.644531 " fill-opacity="1" fill-rule="evenodd"/><path fill="#8b98f3" d="M 334.535156 164.367188 L 313.566406 164.367188 L 313.566406 106.507812 L 302.445312 106.507812 C 300.710938 106.507812 299.679688 104.570312 300.644531 103.128906 L 322.246094 70.863281 C 323.109375 69.582031 324.992188 69.582031 325.851562 70.863281 L 347.457031 103.128906 C 348.421875 104.570312 347.390625 106.507812 345.65625 106.507812 L 334.535156 106.507812 Z M 334.535156 164.367188 " fill-opacity="1" fill-rule="nonzero"/><path fill="#2f2f2f" d="M 323.667969 225.261719 L 323.667969 184.367188 L 322.90625 184.367188 L 322.90625 225.261719 Z M 334.152344 198.132812 L 334.648438 171.894531 L 333.882812 171.878906 L 333.390625 198.117188 Z M 312.914062 164.882812 L 323.78125 164.882812 L 323.78125 164.117188 L 313.679688 164.117188 L 313.679688 106.257812 L 302.175781 106.257812 C 300.746094 106.257812 299.894531 104.660156 300.691406 103.472656 L 318.96875 76.175781 L 318.335938 75.75 L 300.058594 103.046875 C 298.921875 104.746094 300.136719 107.019531 302.175781 107.019531 L 312.914062 107.019531 Z M 312.914062 164.882812 " fill-opacity="1" fill-rule="evenodd"/><path fill="#ffbcad" d="M 128.347656 144.625 L 130.253906 172.90625 L 126.820312 185.824219 L 126.867188 185.835938 C 130.757812 186.890625 134.519531 187.910156 139.796875 186.285156 C 146.285156 184.285156 137.890625 152.652344 134.074219 142.714844 C 129.109375 135.070312 129.109375 127.808594 123.003906 131.25 C 119.96875 132.957031 123.382812 137.746094 125.292969 139.65625 C 123.511719 139.402344 119.949219 139.121094 119.949219 140.039062 C 119.949219 141.183594 123.003906 141.183594 124.148438 141.949219 C 125.0625 142.5625 127.328125 143.988281 128.347656 144.625 Z M 128.347656 144.625 " fill-opacity="1" fill-rule="nonzero"/><path fill="#2f2f2f" d="M 141.546875 185.226562 C 141.15625 185.921875 140.617188 186.433594 139.910156 186.648438 C 134.527344 188.308594 130.671875 187.265625 126.78125 186.210938 L 126.71875 186.195312 L 126.917969 185.457031 L 126.949219 185.464844 C 130.839844 186.519531 134.511719 187.511719 139.6875 185.917969 C 140.160156 185.773438 140.558594 185.425781 140.882812 184.851562 C 141.210938 184.273438 141.449219 183.480469 141.601562 182.492188 C 141.90625 180.519531 141.847656 177.863281 141.523438 174.816406 C 140.878906 168.730469 139.203125 161.1875 137.429688 154.664062 L 138.167969 154.460938 C 139.945312 161.003906 141.632812 168.59375 142.28125 174.738281 C 142.605469 177.804688 142.675781 180.539062 142.355469 182.609375 C 142.199219 183.644531 141.9375 184.539062 141.546875 185.226562 Z M 141.546875 185.226562 " fill-opacity="1" fill-rule="evenodd"/><g clip-path="url(#9583046a83)"><path fill="#2f2f2f" d="M 129.859375 354.933594 C 129.71875 352.347656 128.535156 350.324219 124.605469 349.792969 C 121.726562 349.402344 120.179688 347.59375 119.570312 346.363281 L 108.804688 346.363281 L 108.804688 354.933594 Z M 129.859375 354.933594 " fill-opacity="1" fill-rule="nonzero"/></g><g clip-path="url(#5a4b1ffacd)"><path fill="#2f2f2f" d="M 60.734375 343.367188 L 63.789062 335.339844 L 73 339.925781 C 72.746094 341.835938 73.761719 346.042969 76.433594 345.660156 C 81.929688 346.269531 81.523438 351.773438 81.398438 354.066406 L 77.882812 354.066406 C 75.464844 354.066406 73.113281 353.246094 71.222656 351.734375 Z M 60.734375 343.367188 " fill-opacity="1" fill-rule="nonzero"/></g><path fill="#2f2f2f" d="M 106.492188 139.398438 C 104.773438 142.460938 96.269531 143.890625 94.792969 144.671875 C 92.714844 145.773438 95.765625 149.320312 98.4375 151.324219 C 96.886719 150.679688 93.59375 149.972656 92.816406 152.3125 C 91.839844 155.238281 96.96875 156.820312 99.628906 156.21875 L 97.527344 158.632812 C 79.699219 156.363281 81.433594 147.746094 84.53125 143.71875 C 84.4375 141.445312 85.5 138.878906 88.691406 136.261719 C 98.40625 128.308594 107.480469 134.113281 106.769531 138.617188 C 106.726562 138.886719 106.632812 139.148438 106.492188 139.398438 Z M 106.492188 139.398438 " fill-opacity="1" fill-rule="nonzero"/><path fill="#ffbcad" d="M 107.351562 169.085938 C 107.351562 169.085938 101.179688 171.761719 97.40625 166.984375 L 97.527344 158.632812 L 99.628906 156.214844 C 96.96875 156.820312 91.839844 155.238281 92.8125 152.3125 C 93.59375 149.972656 96.886719 150.679688 98.4375 151.324219 C 95.765625 149.316406 92.714844 145.773438 94.792969 144.671875 C 96.269531 143.890625 104.769531 142.460938 106.492188 139.394531 C 112.582031 146.695312 114.222656 153.796875 109.644531 155.707031 C 108.496094 160.570312 106.441406 168 107.351562 169.085938 Z M 107.351562 169.085938 " fill-opacity="1" fill-rule="nonzero"/><path fill="#f58861" d="M 100.863281 156.855469 C 103.917969 156.855469 106.207031 157.140625 109.640625 155.707031 C 109.460938 156.480469 109.253906 157.316406 109.042969 158.183594 C 107.035156 158.328125 102.753906 157.359375 100.863281 156.855469 Z M 100.863281 156.855469 " fill-opacity="1" fill-rule="nonzero"/><path fill="#832d3b" d="M 61.433594 340.109375 L 73.730469 340.949219 C 74.789062 341.023438 75.757812 340.359375 76.074219 339.34375 L 102.761719 253.550781 L 106.871094 344.234375 C 106.929688 345.460938 107.9375 346.425781 109.160156 346.425781 L 121.796875 346.425781 C 123.082031 346.425781 124.117188 345.359375 124.085938 344.070312 L 121.09375 233.292969 C 110.101562 237.574219 91.828125 234.3125 84.070312 232.148438 L 59.359375 337.296875 C 59.035156 338.675781 60.023438 340.015625 61.433594 340.109375 Z M 61.433594 340.109375 " fill-opacity="1" fill-rule="nonzero"/><path fill="#2f2f2f" d="M 111.292969 244.09375 L 111.808594 244.660156 L 103.496094 252.226562 L 103.148438 253.589844 L 104.945312 293.28125 L 104.183594 293.316406 L 102.480469 255.746094 L 86.125 308.320312 L 85.398438 308.089844 L 102.394531 253.445312 L 102.8125 251.816406 Z M 111.292969 244.09375 " fill-opacity="1" fill-rule="evenodd"/><path fill="#4f69e1" d="M 78.34375 170.613281 C 82.007812 167.25 92.339844 165.136719 97.046875 164.5 C 98.957031 166.921875 103.6875 170.308594 107.351562 164.5 L 130.253906 172.527344 L 126.820312 187.050781 L 118.46875 185.554688 C 120.992188 200.886719 123.6875 221.765625 123.003906 234.824219 C 114.605469 236.863281 94.832031 239.714844 82.925781 234.824219 L 85.214844 207.6875 L 80.03125 193.085938 L 74.144531 200.808594 L 62.3125 193.546875 C 67.65625 183.226562 74.679688 173.976562 78.34375 170.613281 Z M 78.34375 170.613281 " fill-opacity="1" fill-rule="nonzero"/><path fill="#2f2f2f" d="M 122.636719 234.519531 C 123.480469 217.085938 118.414062 186.035156 115.757812 172.601562 L 116.507812 172.449219 C 119.175781 185.953125 124.304688 217.359375 123.382812 234.84375 L 123.367188 235.128906 L 123.09375 235.195312 C 117.3125 236.597656 106.175781 238.382812 95.878906 237.789062 L 95.921875 237.027344 C 105.960938 237.605469 116.832031 235.898438 122.636719 234.519531 Z M 85.515625 186.515625 L 80.332031 193.320312 L 79.726562 192.855469 L 84.910156 186.050781 Z M 85.515625 186.515625 " fill-opacity="1" fill-rule="evenodd"/><path fill="#ff8906" d="M 101.628906 230.238281 L 126.4375 181.316406 C 105.375 193.703125 69.023438 192.007812 56.769531 191.269531 L 34.828125 234.398438 C 67.585938 238 84.929688 238.851562 101.628906 230.238281 Z M 101.628906 230.238281 " fill-opacity="1" fill-rule="nonzero"/><path fill="#2f2f2f" d="M 35.417969 234.078125 L 52.0625 201.363281 L 51.382812 201.015625 L 34.238281 234.71875 L 34.785156 234.777344 C 62.355469 237.808594 79.09375 238.910156 93.730469 234 L 93.492188 233.273438 C 79.136719 238.089844 62.691406 237.070312 35.417969 234.078125 Z M 35.417969 234.078125 " fill-opacity="1" fill-rule="evenodd"/><path fill="#ffbcad" d="M 70.328125 203.867188 L 73.765625 200.574219 L 63.878906 194.507812 C 62.914062 195.578125 60.96875 199.128906 60.402344 201.574219 C 59.640625 204.863281 65.195312 223.632812 69.117188 233.292969 C 71.472656 235.585938 76.054688 239.792969 79.109375 239.792969 C 81.550781 239.792969 82.925781 236.988281 83.304688 235.585938 C 79.945312 234.363281 79.105469 233.292969 81.015625 232.53125 L 76.816406 231.765625 Z M 70.328125 203.867188 " fill-opacity="1" fill-rule="nonzero"/><path fill="#4f69e1" d="M 62.3125 193.546875 C 67.65625 183.226562 74.679688 173.976562 78.34375 170.613281 L 85.214844 186.285156 L 74.144531 200.808594 Z M 62.3125 193.546875 " fill-opacity="1" fill-rule="nonzero"/><path fill="#ffffff" d="M 171.800781 216.347656 L 165.773438 222.382812 C 164.582031 223.574219 164.582031 225.511719 165.773438 226.707031 L 214.511719 275.507812 C 215.707031 276.703125 217.636719 276.703125 218.832031 275.507812 L 224.859375 269.472656 C 226.050781 268.277344 226.050781 266.34375 224.859375 265.148438 L 176.117188 216.347656 C 174.925781 215.152344 172.992188 215.152344 171.800781 216.347656 Z M 171.800781 216.347656 " fill-opacity="1" fill-rule="nonzero"/><path fill="#2f2f2f" d="M 214.242188 275.777344 L 168.917969 230.398438 L 169.460938 229.855469 L 214.78125 275.238281 C 215.828125 276.28125 217.519531 276.28125 218.5625 275.238281 L 223.695312 270.097656 L 224.234375 270.636719 L 219.101562 275.777344 C 217.761719 277.121094 215.585938 277.121094 214.242188 275.777344 Z M 214.242188 275.777344 " fill-opacity="1" fill-rule="evenodd"/><path fill="#8b98f3" d="M 224.859375 222.382812 L 218.832031 216.347656 C 217.636719 215.152344 215.707031 215.152344 214.511719 216.347656 L 207.585938 223.285156 L 202.691406 228.183594 L 163.613281 267.3125 L 156.625 282.78125 L 173.960938 277.667969 L 213.035156 238.542969 L 217.929688 233.644531 L 224.859375 226.707031 C 226.050781 225.511719 226.050781 223.574219 224.859375 222.382812 Z M 224.859375 222.382812 " fill-opacity="1" fill-rule="nonzero"/><path fill="#e0e3fc" d="M 173.960938 277.671875 L 156.625 282.78125 L 163.613281 267.3125 Z M 173.960938 277.671875 " fill-opacity="1" fill-rule="nonzero"/><path fill="#2f2f2f" d="M 174.230469 277.398438 L 163.882812 267.039062 L 163.34375 267.582031 L 173.691406 277.941406 Z M 174.230469 277.398438 " fill-opacity="1" fill-rule="evenodd"/><path fill="#2f2f2f" d="M 202.421875 228.453125 L 212.765625 238.8125 L 213.308594 238.273438 L 202.960938 227.914062 Z M 202.421875 228.453125 " fill-opacity="1" fill-rule="evenodd"/><path fill="#ff8906" d="M 218.832031 216.347656 L 224.859375 222.382812 C 226.050781 223.574219 226.050781 225.511719 224.859375 226.707031 L 217.929688 233.644531 L 207.585938 223.285156 L 214.511719 216.347656 C 215.707031 215.152344 217.636719 215.152344 218.832031 216.347656 Z M 218.832031 216.347656 " fill-opacity="1" fill-rule="nonzero"/><path fill="#2f2f2f" d="M 207.3125 223.554688 L 217.660156 233.914062 L 218.199219 233.375 L 207.855469 223.015625 Z M 207.3125 223.554688 " fill-opacity="1" fill-rule="evenodd"/><path fill="#ff8906" d="M 216.257812 87.929688 L 218.445312 64.246094 L 195.695312 57.40625 L 194.597656 61.070312 L 210.453125 65.835938 L 183.753906 83.226562 L 165.5625 70.511719 C 164.472656 69.75 163.0625 69.609375 161.84375 70.144531 L 99.636719 97.492188 L 102.089844 103.089844 L 163.121094 76.261719 L 181.523438 89.125 C 182.800781 90.015625 184.488281 90.042969 185.789062 89.195312 L 214.003906 70.816406 L 212.457031 87.578125 Z M 216.257812 87.929688 " fill-opacity="1" fill-rule="evenodd"/><path fill="#2f2f2f" d="M 218.035156 64.523438 L 206.960938 61.195312 L 207.179688 60.460938 L 218.855469 63.972656 L 216.601562 88.347656 L 212.039062 87.925781 L 213.625 70.78125 L 214.386719 70.851562 L 212.871094 87.234375 L 215.910156 87.515625 Z M 194.707031 60.703125 L 211.351562 65.707031 L 183.746094 83.6875 L 165.34375 70.824219 C 164.363281 70.136719 163.09375 70.011719 161.996094 70.496094 L 99.789062 97.839844 L 99.480469 97.140625 L 161.691406 69.796875 C 163.03125 69.207031 164.582031 69.359375 165.78125 70.199219 L 183.761719 82.765625 L 209.554688 65.964844 L 194.488281 61.433594 Z M 163.339844 75.949219 L 181.742188 88.8125 L 181.304688 89.4375 L 162.902344 76.574219 Z M 163.339844 75.949219 " fill-opacity="1" fill-rule="evenodd"/><path fill="#8b98f3" d="M 274.160156 237.878906 C 283.222656 237.878906 290.570312 230.523438 290.570312 221.445312 L 283.679688 221.445312 C 283.679688 226.710938 279.417969 230.976562 274.160156 230.976562 Z M 274.160156 237.878906 " fill-opacity="1" fill-rule="nonzero"/><path fill="#ffffff" d="M 257.746094 221.445312 C 257.746094 230.523438 265.09375 237.878906 274.160156 237.878906 L 274.160156 230.976562 C 268.902344 230.976562 264.640625 226.710938 264.640625 221.445312 Z M 257.746094 221.445312 " fill-opacity="1" fill-rule="nonzero"/><path fill="#8b98f3" d="M 274.160156 205.011719 C 265.09375 205.011719 257.746094 212.371094 257.746094 221.445312 L 264.640625 221.445312 C 264.640625 216.183594 268.902344 211.914062 274.160156 211.914062 Z M 274.160156 205.011719 " fill-opacity="1" fill-rule="nonzero"/><path fill="#4f69e1" d="M 290.570312 221.445312 C 290.570312 212.371094 283.222656 205.011719 274.160156 205.011719 L 274.160156 211.914062 C 279.417969 211.914062 283.679688 216.183594 283.679688 221.445312 Z M 290.570312 221.445312 " fill-opacity="1" fill-rule="nonzero"/><path fill="#e0e3fc" d="M 294.683594 300.425781 C 300.023438 287.898438 278.980469 258.777344 271.441406 275.6875 C 263.902344 292.597656 289.972656 286.960938 294.683594 300.425781 Z M 294.683594 300.425781 " fill-opacity="1" fill-rule="nonzero"/><path fill="#e0e3fc" d="M 309.414062 300.222656 C 308.9375 300.355469 308.421875 300.425781 307.875 300.425781 C 310.597656 293.222656 313.90625 277.066406 305.363281 270.050781 C 294.683594 261.28125 301.28125 250.636719 314.472656 251.261719 C 327.375 251.875 331.863281 296.238281 309.414062 300.222656 Z M 309.414062 300.222656 " fill-opacity="1" fill-rule="nonzero"/><path fill="#e0e3fc" d="M 311.957031 310.09375 C 319.707031 305.929688 337.398438 302.554688 346.191406 322.347656 C 354.988281 342.136719 326.617188 322.097656 311.957031 310.09375 Z M 311.957031 310.09375 " fill-opacity="1" fill-rule="nonzero"/><path fill="#e0e3fc" d="M 267.671875 296.667969 C 273.953125 290.65625 277.695312 304.601562 278.777344 312.324219 C 278.949219 312.691406 279.117188 313.054688 279.28125 313.421875 C 274.242188 304.496094 259.820312 304.183594 267.671875 296.667969 Z M 267.671875 296.667969 " fill-opacity="1" fill-rule="nonzero"/><path fill="#2f2f2f" d="M 322.054688 259.050781 C 320.175781 254.609375 317.515625 251.789062 314.453125 251.644531 L 314.488281 250.878906 C 318.023438 251.046875 320.859375 254.257812 322.757812 258.75 C 324.671875 263.277344 325.710938 269.253906 325.570312 275.265625 C 325.433594 281.277344 324.117188 287.367188 321.292969 292.105469 C 318.707031 296.433594 314.855469 299.636719 309.503906 300.59375 C 308.996094 300.734375 308.457031 300.808594 307.875 300.808594 C 303.445312 300.808594 300.378906 303.984375 298.332031 308.113281 C 296.289062 312.230469 295.324219 317.1875 295.066406 320.496094 L 294.304688 320.4375 C 294.566406 317.066406 295.550781 312.003906 297.648438 307.769531 C 299.703125 303.625 302.890625 300.171875 307.609375 300.046875 C 308.933594 296.460938 310.367188 290.796875 310.460938 285.160156 C 310.5625 279.386719 309.257812 273.742188 305.121094 270.347656 L 305.605469 269.757812 C 310.011719 273.375 311.324219 279.316406 311.226562 285.175781 C 311.128906 290.742188 309.757812 296.320312 308.445312 299.980469 C 308.742188 299.941406 309.039062 299.898438 309.328125 299.847656 C 310.753906 299.441406 311.871094 298.410156 312.734375 296.914062 C 313.878906 294.921875 314.5625 292.136719 314.910156 288.992188 C 315.597656 282.714844 314.929688 275.15625 314.09375 270.113281 L 314.847656 269.988281 C 315.6875 275.070312 316.367188 282.703125 315.667969 289.078125 C 315.316406 292.261719 314.617188 295.171875 313.394531 297.292969 C 312.984375 298.003906 312.515625 298.632812 311.976562 299.152344 C 315.75 297.800781 318.59375 295.136719 320.636719 291.710938 C 323.375 287.121094 324.671875 281.175781 324.808594 275.246094 C 324.945312 269.324219 323.917969 263.457031 322.054688 259.050781 Z M 294.730469 288.78125 C 296.082031 293.046875 296.421875 297.320312 295.035156 300.574219 C 290.796875 310.523438 291.839844 317.929688 292.835938 320.320312 L 292.132812 320.613281 C 291.042969 318.007812 290.039062 310.433594 294.28125 300.402344 C 293.433594 297.453125 291.609375 292.929688 288.839844 288.792969 C 286.023438 284.589844 282.265625 280.839844 277.617188 279.5 L 277.828125 278.765625 C 282.730469 280.179688 286.613281 284.101562 289.472656 288.367188 C 292 292.140625 293.753906 296.226562 294.710938 299.203125 C 295.535156 296.335938 295.175781 292.726562 294 289.015625 C 292.675781 284.835938 290.335938 280.589844 287.597656 277.261719 C 284.847656 273.917969 281.75 271.558594 278.933594 271.035156 C 277.542969 270.773438 276.21875 270.964844 275.023438 271.707031 C 273.824219 272.453125 272.710938 273.777344 271.789062 275.84375 L 271.09375 275.53125 C 272.054688 273.371094 273.253906 271.90625 274.621094 271.058594 C 276 270.203125 277.519531 269.992188 279.074219 270.28125 C 282.15625 270.855469 285.398438 273.386719 288.1875 276.773438 C 290.984375 280.179688 293.375 284.507812 294.730469 288.78125 Z M 277.960938 309.71875 C 277.019531 307.789062 276.0625 305.960938 275.148438 304.421875 C 274.503906 303.335938 273.878906 302.382812 273.292969 301.644531 C 272.714844 300.917969 272.148438 300.351562 271.613281 300.082031 L 271.273438 300.769531 C 271.648438 300.957031 272.128906 301.40625 272.695312 302.121094 C 273.25 302.820312 273.855469 303.738281 274.492188 304.8125 C 275.765625 306.957031 277.136719 309.691406 278.433594 312.488281 C 278.601562 312.851562 278.769531 313.214844 278.933594 313.578125 C 280.425781 316.863281 281.78125 320.117188 282.707031 322.484375 L 283.417969 322.207031 C 282.488281 319.828125 281.128906 316.558594 279.628906 313.261719 C 279.472656 312.914062 279.3125 312.5625 279.148438 312.214844 C 278.601562 308.34375 277.390625 302.910156 275.515625 299.175781 C 274.578125 297.308594 273.441406 295.785156 272.066406 295.144531 C 271.367188 294.820312 270.609375 294.726562 269.816406 294.925781 C 269.027344 295.128906 268.226562 295.609375 267.410156 296.390625 L 267.9375 296.945312 C 268.691406 296.222656 269.378906 295.828125 270.003906 295.667969 C 270.617188 295.511719 271.195312 295.582031 271.746094 295.839844 C 272.871094 296.363281 273.914062 297.683594 274.835938 299.515625 C 276.269531 302.378906 277.316406 306.300781 277.960938 309.71875 Z M 312.691406 310.199219 C 317.742188 308.160156 324.050781 308.074219 331.226562 312.648438 L 331.636719 312.003906 C 323.96875 307.113281 317.183594 307.371094 311.804688 309.742188 C 306.308594 312.167969 302.3125 316.789062 300.320312 320.277344 L 300.984375 320.65625 C 302.890625 317.316406 306.699219 312.90625 311.898438 310.539062 C 319.226562 316.527344 329.898438 324.460938 337.695312 328.480469 C 339.664062 329.496094 341.460938 330.269531 342.988281 330.699219 C 344.496094 331.121094 345.8125 331.234375 346.765625 330.820312 C 347.257812 330.605469 347.644531 330.257812 347.894531 329.769531 C 348.144531 329.285156 348.25 328.6875 348.230469 327.984375 C 348.191406 326.585938 347.648438 324.679688 346.542969 322.191406 L 345.84375 322.5 C 346.9375 324.960938 347.433594 326.757812 347.46875 328.003906 C 347.484375 328.625 347.386719 329.082031 347.21875 329.417969 C 347.050781 329.746094 346.800781 329.972656 346.464844 330.117188 C 345.765625 330.421875 344.667969 330.378906 343.195312 329.964844 C 341.738281 329.554688 339.992188 328.804688 338.046875 327.804688 C 330.429688 323.875 320 316.148438 312.691406 310.199219 Z M 312.691406 310.199219 " fill-opacity="1" fill-rule="evenodd"/><g clip-path="url(#5e62aa70c2)"><path fill="#4f69e1" d="M 275.753906 317.714844 L 312.582031 317.714844 L 309.988281 354.066406 L 278.347656 354.066406 Z M 275.753906 317.714844 " fill-opacity="1" fill-rule="nonzero"/></g><g clip-path="url(#517b0b07e6)"><path fill="#2f2f2f" d="M 312.171875 318.09375 L 279.121094 318.09375 L 279.121094 317.332031 L 312.988281 317.332031 L 310.367188 354.09375 L 309.605469 354.039062 Z M 312.171875 318.09375 " fill-opacity="1" fill-rule="evenodd"/></g><path fill="#ff8906" d="M 239.421875 137.746094 L 251.636719 137.746094 L 251.636719 149.976562 L 239.421875 149.976562 Z M 239.421875 137.746094 " fill-opacity="1" fill-rule="nonzero"/><path fill="#2f2f2f" d="M 239.042969 137.363281 L 251.636719 137.363281 L 251.636719 138.128906 L 239.804688 138.128906 L 239.804688 149.976562 L 239.042969 149.976562 Z M 239.042969 137.363281 " fill-opacity="1" fill-rule="evenodd"/><path fill="#ffb25d" d="M 239.421875 156.855469 L 251.636719 156.855469 L 251.636719 169.085938 L 239.421875 169.085938 Z M 239.421875 156.855469 " fill-opacity="1" fill-rule="nonzero"/><path fill="#2f2f2f" d="M 239.042969 156.472656 L 251.636719 156.472656 L 251.636719 157.238281 L 239.804688 157.238281 L 239.804688 169.085938 L 239.042969 169.085938 Z M 239.042969 156.472656 " fill-opacity="1" fill-rule="evenodd"/><path fill="#ff8906" d="M 255.453125 137.746094 L 293.625 137.746094 L 293.625 142.332031 L 255.453125 142.332031 Z M 255.453125 137.746094 " fill-opacity="1" fill-rule="nonzero"/><path fill="#ffb25d" d="M 255.453125 156.855469 L 293.625 156.855469 L 293.625 161.441406 L 255.453125 161.441406 Z M 255.453125 156.855469 " fill-opacity="1" fill-rule="nonzero"/><path fill="#ff8906" d="M 255.453125 145.390625 L 284.464844 145.390625 L 284.464844 149.976562 L 255.453125 149.976562 Z M 255.453125 145.390625 " fill-opacity="1" fill-rule="nonzero"/><path fill="#ffb25d" d="M 255.453125 164.5 L 284.464844 164.5 L 284.464844 169.085938 L 255.453125 169.085938 Z M 255.453125 164.5 " fill-opacity="1" fill-rule="nonzero"/><path fill="#ffffff" d="M 78.34375 40.667969 C 78.34375 43.203125 76.292969 45.253906 73.761719 45.253906 C 71.234375 45.253906 69.183594 43.203125 69.183594 40.667969 C 69.183594 38.136719 71.234375 36.082031 73.761719 36.082031 C 76.292969 36.082031 78.34375 38.136719 78.34375 40.667969 Z M 78.34375 40.667969 " fill-opacity="1" fill-rule="nonzero"/><path fill="#4f69e1" d="M 92.847656 40.667969 C 92.847656 43.203125 90.796875 45.253906 88.269531 45.253906 C 85.738281 45.253906 83.6875 43.203125 83.6875 40.667969 C 83.6875 38.136719 85.738281 36.082031 88.269531 36.082031 C 90.796875 36.082031 92.847656 38.136719 92.847656 40.667969 Z M 92.847656 40.667969 " fill-opacity="1" fill-rule="nonzero"/><path fill="#2f2f2f" d="M 84.070312 40.667969 C 84.070312 42.988281 85.949219 44.871094 88.269531 44.871094 C 90.585938 44.871094 92.464844 42.988281 92.464844 40.667969 L 93.230469 40.667969 C 93.230469 43.414062 91.007812 45.636719 88.269531 45.636719 C 85.527344 45.636719 83.304688 43.414062 83.304688 40.667969 Z M 84.070312 40.667969 " fill-opacity="1" fill-rule="evenodd"/><path fill="#ffffff" d="M 107.351562 40.667969 C 107.351562 43.203125 105.300781 45.253906 102.773438 45.253906 C 100.242188 45.253906 98.191406 43.203125 98.191406 40.667969 C 98.191406 38.136719 100.242188 36.082031 102.773438 36.082031 C 105.300781 36.082031 107.351562 38.136719 107.351562 40.667969 Z M 107.351562 40.667969 " fill-opacity="1" fill-rule="nonzero"/><path fill="#2f2f2f" d="M 73.761719 36.464844 C 71.445312 36.464844 69.5625 38.347656 69.5625 40.667969 C 69.5625 42.988281 71.445312 44.871094 73.761719 44.871094 L 73.761719 45.636719 C 71.023438 45.636719 68.800781 43.414062 68.800781 40.667969 C 68.800781 37.925781 71.023438 35.699219 73.761719 35.699219 Z M 102.773438 36.464844 C 100.453125 36.464844 98.574219 38.347656 98.574219 40.667969 C 98.574219 42.988281 100.453125 44.871094 102.773438 44.871094 L 102.773438 45.636719 C 100.03125 45.636719 97.808594 43.414062 97.808594 40.667969 C 97.808594 37.925781 100.03125 35.699219 102.773438 35.699219 Z M 102.773438 36.464844 " fill-opacity="1" fill-rule="evenodd"/></svg>